<?xml version="1.0" standalone="no"?>
<!DOCTYPE svg PUBLIC "-//W3C//DTD SVG 20010904//EN"
 "http://www.w3.org/TR/2001/REC-SVG-20010904/DTD/svg10.dtd">
<svg version="1.0" xmlns="http://www.w3.org/2000/svg"
 width="64.000000pt" height="64.000000pt" viewBox="0 0 64.000000 64.000000"
 preserveAspectRatio="xMidYMid meet">

<g transform="translate(0.000000,64.000000) scale(0.100000,-0.100000)"
fill="#cf0a2c" stroke="none">
<path d="M255 626 c-42 -18 -93 -79 -101 -121 -9 -49 3 -100 31 -134 14 -16
25 -31 25 -34 0 -3 -24 -19 -53 -35 -82 -46 -139 -125 -153 -210 -5 -35 -3
-44 19 -66 26 -26 28 -26 175 -26 151 0 166 4 155 38 -4 9 -43 12 -149 12
-164 0 -168 2 -140 73 36 95 130 165 234 174 55 5 76 0 169 -38 27 -11 35 -11
45 0 11 10 7 17 -17 37 -16 13 -35 24 -42 24 -24 0 -24 21 1 50 49 59 46 146
-7 207 -52 60 -125 78 -192 49z m135 -65 c31 -23 54 -82 46 -116 -11 -45 -57
-86 -101 -91 -49 -6 -82 10 -113 56 -71 105 65 227 168 151z"/>
<path d="M433 194 c-4 -10 7 -29 30 -52 l37 -36 -36 -38 c-23 -23 -34 -42 -31
-52 9 -24 23 -20 65 19 l39 34 33 -34 c37 -38 57 -44 67 -19 3 10 -7 29 -30
52 l-36 37 35 37 c38 42 42 56 18 65 -10 3 -29 -8 -53 -31 l-37 -36 -34 35
c-37 38 -57 44 -67 19z"/>
</g>
</svg>